<?xml version="1.0"?><svg version="1.2" baseProfile="tiny-ps" viewBox="0 0 900 900" xmlns="http://www.w3.org/2000/svg" xmlns:xlink="http://www.w3.org/1999/xlink">
<title>o2/solutions</title>

<g>
<g fill="#fefeff" transform="matrix(.1 0 0 -.1 0 900)">

<path d="M4665 8550c-426-38-826-149-1170-325-347-178-450-240-632-382-285-221-518-477-750-823-112-167-179-286-253-455-148-334-235-673-276-1065l-17-165 6-210 6-210 16-124c22-170 60-360 101-505 36-126 104-315 134-376l18-35 118-67c262-147 464-234 464-200 0 5-22 46-50 92-124 206-242 493-305 740-13 52-38 172-55 265l-31 170-10 157-11 158 11 167c13 193 31 321 67 483 94 418 269 798 528 1145l90 120 175 175 176 176 135 100c181 135 306 212 485 299 312 151 562 227 915 277l95 13h550l120-18c258-38 515-111 755-212l125-53 150-5 150-6 90-16c180-32 384-92 543-157 125-52 107-21-78 126-210 168-415 298-645 411-344 168-653 259-1095 321l-105 14-220 5-220 4-100-9zm730-732c-131-15-316-55-445-98l-121-39-132-64c-266-128-519-315-678-499l-62-72 11-4c7-2 38 13 71 32 142 87 378 187 553 236l68 19-31-60-30-60-24-92c-27-103-51-257-61-393l-7-91 10-6 9-6 50 92c263 488 722 907 1164 1064l80 28-3 10-4 10-169 1-169 2-80-10zm600-137c-469-86-859-377-1197-890l-87-133-76-149c-41-82-75-156-75-164v-15h12c7 0 100-11 206-26 107-14 195-24 196-22 2 2 22 39 45 82 47 89 115 192 164 249l32 37 37-56 38-56-32-32c-48-48-156-221-145-232 2-3 58-12 123-21l119-15 170 5 170 6 125 21c155 26 251 50 410 102 127 41 347 131 364 149l10 9h69c137 0 454-59 605-112 280-98 628-345 868-615 43-48 84-90 91-91l14-4-7 39c-3 21-22 90-41 153l-34 115-64 130-64 130-65 86c-35 47-95 114-131 148l-67 62-127 84c-151 99-235 142-367 188-188 65-381 100-619 112l-130 6-135-10-135-11-105-105-106-106 4 113 4 113-11 39c-6 22-9 41-7 43s43-3 91-12l87-17 47 20c65 29 190 50 360 63l146 11 120-6 120-6 114-20 114-21 111-35c184-59 352-149 500-268 20-16 39-26 42-23 8 8-52 115-128 229l-61 91-95 98-94 99-97 68c-278 199-530 307-856 369l-80 15-195 4-195 4-100-19zm-1635-584c-236-103-540-321-803-576l-118-115-44-66c-53-80-99-192-120-290l-15-71v-277l14-74c31-158 90-278 194-389l63-67 64-42 64-42 10 6 10 6-23 68c-13 37-29 98-36 136l-13 68 6 80 5 79 26 54 27 54 36 32c21 17 60 42 88 55l50 22 145 27c519 96 852 109 1174 44l98-20 7 6 6 7-62 58-62 58-70 42c-87 52-236 111-361 143-82 22-136 32-339 63l-33 5 6 32c4 18 14 70 22 117l16 85 3 240 3 240 12 79c6 43 18 96 25 117 8 22 11 39 7 39s-41-15-82-33zm2240-798c-257-90-577-165-830-194l-135-15h-294l-5-8-5-9 127-23c294-53 616-145 909-261l158-62 205-103 205-103 137-88c405-260 718-566 979-956l99-149 77-158c43-87 81-159 85-159 11-1 17 28 33 164l15 130v304l-15 118c-40 306-136 569-296 809l-73 109-125 125c-185 185-340 297-544 395-135 65-287 117-424 144l-101 21-49-1-48-1-85-29zm-1350-361v-13l76-65c191-163 412-415 556-635l79-120 64-130 64-130 35-105c19-58 45-152 57-210l22-105 1-137 1-138h12c33 0 127 163 168 290 10 30 21 59 26 64l8 9 46-73c67-103 129-238 180-393l44-133 30-145c16-79 37-202 47-274l17-130-1-140v-140l-12-90c-44-351-161-668-326-888-41-54-53-77-38-77 4 0 45 26 92 57 256 170 474 408 634 690 65 116 144 290 169 371 7 23 16 42 20 42 8 0 42-136 59-240 6-36 14-134 17-217l6-153h8c11 0 67 111 115 227 119 285 188 577 203 852l7 136 37-75 37-75 27-108 28-107h23l23 93 22 92 1 125v125l-13 75c-7 41-28 120-46 176l-33 100-55 110c-68 136-169 288-277 416l-81 98-189 179-189 179-85 64c-349 258-837 474-1382 611-99 25-206 51-239 57s-68 14-77 16l-18 5v-13zm-483-225l-5-9 50-64c219-279 338-578 368-920l10-125-10-125c-21-255-73-458-175-677l-44-93 10-6 10-6 67 37c153 84 315 224 415 360l52 69 3-154 3-155-11-83c-31-233-114-440-251-621l-59-80-88-81-87-82-96-64c-121-81-249-141-414-193-251-81-469-127-709-151l-119-13-216 6-216 5-120 21c-66 11-157 31-202 44l-83 24v-27l73-53c109-80 159-110 306-181l135-65 165-55 166-54 140-31c77-16 199-38 270-47l130-18h470l116 17c326 48 614 152 835 302l96 65-23-37c-76-126-197-246-359-355l-105-71-116-57c-65-32-123-60-129-62l-13-4 4-10 4-10 100 12c630 81 1062 351 1271 799l44 94 30 103c40 138 59 264 67 433l6 140-12 134c-17 191-64 438-101 536l-11 30-37-45c-69-84-147-163-242-243l-95-80-6 179-7 179-16 120c-92 664-387 1130-873 1378l-108 55-95 30c-52 16-109 33-127 36l-31 7-5-8zm-290-160c4-38 8-149 8-248l-1-180-22-102c-41-188-107-347-199-485l-47-72-94-98c-189-196-385-313-637-378l-110-28-114-12-114-13-101 6c-188 12-367 59-520 137-89 45-86 45-86 26v-14l94-90 94-89 84-56c169-112 352-186 553-223l100-19h490l83 18c246 54 430 148 590 302l84 79 57 86 58 86 32 79c18 43 44 121 57 172l24 94 9 115 9 114-8 103c-11 128-33 235-72 345-38 109-58 149-121 240l-51 74-55 49c-30 27-61 49-69 49h-14l9-67zm773-1945c-149-139-338-253-577-347l-53-21 58 69 57 69 45 85 45 85-8 8-7 8-78-33c-298-127-573-203-892-248l-125-17h-540l-120 17c-387 56-721 154-996 292l-71 37-9-9-8-8 64-88c215-290 499-490 870-612l130-43 125-25c69-14 170-32 225-39l100-12h450l141 22c414 65 711 182 947 372l75 60 49 60c91 113 154 236 169 330l7 40h-9c-5-1-34-24-64-52zm1725-1672l-50-25-18-30-17-29v-54l22-30 21-30 41-19 41-19h750l35-18 35-17v-79l-25-13-25-13h-178c-312 0-511-27-674-89-145-56-267-151-329-256l-29-50-3-297-3-296 33-24c18-14 47-30 63-37l30-11 742 2 741 3 44 30 43 31 3 53 3 54-22 23-22 24-54 20-54 20H7000v363l42 40 42 40 60 28c34 16 88 36 121 45l60 16 295 8 295 7 74 22c94 28 135 49 193 100l47 42 27 55 27 55-6 59-5 60-25 43c-14 24-45 61-68 81l-42 38-62 29c-34 16-93 37-131 46l-69 16-425 4-425 4-50-25zM1263 3c20-2 54-2 75 0l37 4h-150l38-4z"/></g><g fill="#9d9eca" transform="matrix(.1 0 0 -.1 0 900)"><path d="M4665 8550c-426-38-826-149-1170-325-347-178-450-240-632-382-285-221-518-477-750-823-112-167-179-286-253-455-148-334-235-673-276-1065l-17-165 6-210 6-210 16-124c22-170 60-360 101-505 36-126 104-315 134-376l18-35 118-67c262-147 464-234 464-200 0 5-22 46-50 92-124 206-242 493-305 740-13 52-38 172-55 265l-31 170-10 157-11 158 11 167c13 193 31 321 67 483 94 418 269 798 528 1145l90 120 175 175 176 176 135 100c181 135 306 212 485 299 312 151 562 227 915 277l95 13h550l120-18c258-38 515-111 755-212l125-53 150-5 150-6 90-16c180-32 384-92 543-157 125-52 107-21-78 126-210 168-415 298-645 411-344 168-653 259-1095 321l-105 14-220 5-220 4-100-9zm730-732c-131-15-316-55-445-98l-121-39-132-64c-266-128-519-315-678-499l-62-72 11-4c7-2 38 13 71 32 142 87 378 187 553 236l68 19-31-60-30-60-24-92c-27-103-51-257-61-393l-7-91 10-6 9-6 50 92c263 488 722 907 1164 1064l80 28-3 10-4 10-169 1-169 2-80-10zm600-137c-469-86-859-377-1197-890l-87-133-76-149c-41-82-75-156-75-164v-15h12c7 0 100-11 206-26 107-14 195-24 196-22 2 2 22 39 45 82 47 89 115 192 164 249l32 37 37-56 38-56-32-32c-48-48-156-221-145-232 2-3 58-12 123-21l119-15 170 5 170 6 125 21c155 26 251 50 410 102 127 41 347 131 364 149l10 9h69c137 0 454-59 605-112 280-98 628-345 868-615 43-48 84-90 91-91l14-4-7 39c-3 21-22 90-41 153l-34 115-64 130-64 130-65 86c-35 47-95 114-131 148l-67 62-127 84c-151 99-235 142-367 188-188 65-381 100-619 112l-130 6-135-10-135-11-105-105-106-106 4 113 4 113-11 39c-6 22-9 41-7 43s43-3 91-12l87-17 47 20c65 29 190 50 360 63l146 11 120-6 120-6 114-20 114-21 111-35c184-59 352-149 500-268 20-16 39-26 42-23 8 8-52 115-128 229l-61 91-95 98-94 99-97 68c-278 199-530 307-856 369l-80 15-195 4-195 4-100-19zm-120-693l17-43 6-68 5-67-17-44c-9-25-31-63-47-86l-30-42-44-19-43-19-74-6-74-7-57 17-58 17-40 36c-41 37-69 81-68 105 0 13 74 78 89 78 4 0 10-13 13-29l6-29 33-38 33-37 32-13c18-8 49-14 70-14h37l43 21 44 21 25 33 25 33 6 36c8 49-3 98-32 140l-25 37 23 8c12 4 29 11 37 14s22 6 31 6l17 1 17-42zm-1515 109c-236-103-540-321-803-576l-118-115-44-66c-53-80-99-192-120-290l-15-71v-277l14-74c31-158 90-278 194-389l63-67 64-42 64-42 10 6 10 6-23 68c-13 37-29 98-36 136l-13 68 6 80 5 79 26 54 27 54 36 32c21 17 60 42 88 55l50 22 145 27c519 96 852 109 1174 44l98-20 7 6 6 7-62 58-62 58-70 42c-87 52-236 111-361 143-82 22-136 32-339 63l-33 5 6 32c4 18 14 70 22 117l16 85 3 240 3 240 12 79c6 43 18 96 25 117 8 22 11 39 7 39s-41-15-82-33zm2240-798c-257-90-577-165-830-194l-135-15h-294l-5-8-5-9 127-23c294-53 616-145 909-261l158-62 205-103 205-103 137-88c405-260 718-566 979-956l99-149 77-158c43-87 81-159 85-159 11-1 17 28 33 164l15 130v304l-15 118c-40 306-136 569-296 809l-73 109-125 125c-185 185-340 297-544 395-135 65-287 117-424 144l-101 21-49-1-48-1-85-29zm-1350-361v-13l76-65c191-163 412-415 556-635l79-120 64-130 64-130 35-105c19-58 45-152 57-210l22-105 1-137 1-138h12c33 0 127 163 168 290 10 30 21 59 26 64l8 9 46-73c67-103 129-238 180-393l44-133 30-145c16-79 37-202 47-274l17-130-1-140v-140l-12-90c-44-351-161-668-326-888-41-54-53-77-38-77 4 0 45 26 92 57 256 170 474 408 634 690 65 116 144 290 169 371 7 23 16 42 20 42 8 0 42-136 59-240 6-36 14-134 17-217l6-153h8c11 0 67 111 115 227 119 285 188 577 203 852l7 136 37-75 37-75 27-108 28-107h23l23 93 22 92 1 125v125l-13 75c-7 41-28 120-46 176l-33 100-55 110c-68 136-169 288-277 416l-81 98-189 179-189 179-85 64c-349 258-837 474-1382 611-99 25-206 51-239 57s-68 14-77 16l-18 5v-13zm-483-225l-5-9 50-64c219-279 338-578 368-920l10-125-10-125c-21-255-73-458-175-677l-44-93 10-6 10-6 67 37c153 84 315 224 415 360l52 69 3-154 3-155-11-83c-31-233-114-440-251-621l-59-80-88-81-87-82-96-64c-121-81-249-141-414-193-251-81-469-127-709-151l-119-13-216 6-216 5-120 21c-66 11-157 31-202 44l-83 24v-27l73-53c109-80 159-110 306-181l135-65 165-55 166-54 140-31c77-16 199-38 270-47l130-18h470l116 17c326 48 614 152 835 302l96 65-23-37c-76-126-197-246-359-355l-105-71-116-57c-65-32-123-60-129-62l-13-4 4-10 4-10 100 12c630 81 1062 351 1271 799l44 94 30 103c40 138 59 264 67 433l6 140-12 134c-17 191-64 438-101 536l-11 30-37-45c-69-84-147-163-242-243l-95-80-6 179-7 179-16 120c-92 664-387 1130-873 1378l-108 55-95 30c-52 16-109 33-127 36l-31 7-5-8zm-290-160c4-38 8-149 8-248l-1-180-22-102c-41-188-107-347-199-485l-47-72-94-98c-189-196-385-313-637-378l-110-28-114-12-114-13-101 6c-188 12-367 59-520 137-89 45-86 45-86 26v-14l94-90 94-89 84-56c169-112 352-186 553-223l100-19h490l83 18c246 54 430 148 590 302l84 79 57 86 58 86 32 79c18 43 44 121 57 172l24 94 9 115 9 114-8 103c-11 128-33 235-72 345-38 109-58 149-121 240l-51 74-55 49c-30 27-61 49-69 49h-14l9-67zm773-1945c-149-139-338-253-577-347l-53-21 58 69 57 69 45 85 45 85-8 8-7 8-78-33c-298-127-573-203-892-248l-125-17h-540l-120 17c-387 56-721 154-996 292l-71 37-9-9-8-8 64-88c215-290 499-490 870-612l130-43 125-25c69-14 170-32 225-39l100-12h450l141 22c414 65 711 182 947 372l75 60 49 60c91 113 154 236 169 330l7 40h-9c-5-1-34-24-64-52zm1725-1672l-50-25-18-30-17-29v-54l22-30 21-30 41-19 41-19h750l35-18 35-17v-79l-25-13-25-13h-178c-312 0-511-27-674-89-145-56-267-151-329-256l-29-50-3-297-3-296 33-24c18-14 47-30 63-37l30-11 742 2 741 3 44 30 43 31 3 53 3 54-22 23-22 24-54 20-54 20H7000v363l42 40 42 40 60 28c34 16 88 36 121 45l60 16 295 8 295 7 74 22c94 28 135 49 193 100l47 42 27 55 27 55-6 59-5 60-25 43c-14 24-45 61-68 81l-42 38-62 29c-34 16-93 37-131 46l-69 16-425 4-425 4-50-25zM1263 3c20-2 54-2 75 0l37 4h-150l38-4z"/></g><g fill="#ed3236" transform="matrix(.1 0 0 -.1 0 900)"><path d="M4665 8550c-426-38-826-149-1170-325-347-178-450-240-632-382-285-221-518-477-750-823-112-167-179-286-253-455-148-334-235-673-276-1065l-17-165 6-210 6-210 16-124c22-170 60-360 101-505 36-126 104-315 134-376l18-35 118-67c262-147 464-234 464-200 0 5-22 46-50 92-124 206-242 493-305 740-13 52-38 172-55 265l-31 170-10 157-11 158 11 167c13 193 31 321 67 483 94 418 269 798 528 1145l90 120 175 175 176 176 135 100c181 135 306 212 485 299 312 151 562 227 915 277l95 13h550l120-18c258-38 515-111 755-212l125-53 150-5 150-6 90-16c180-32 384-92 543-157 125-52 107-21-78 126-210 168-415 298-645 411-344 168-653 259-1095 321l-105 14-220 5-220 4-100-9zm730-732c-131-15-316-55-445-98l-121-39-132-64c-266-128-519-315-678-499l-62-72 11-4c7-2 38 13 71 32 142 87 378 187 553 236l68 19-31-60-30-60-24-92c-27-103-51-257-61-393l-7-91 10-6 9-6 50 92c263 488 722 907 1164 1064l80 28-3 10-4 10-169 1-169 2-80-10zm600-137c-469-86-859-377-1197-890l-87-133-76-149c-41-82-75-156-75-164v-15h12c7 0 100-11 206-26 107-14 195-24 196-22 2 2 22 39 45 82 47 89 115 192 164 249l32 37 37-56 38-56-32-32c-48-48-156-221-145-232 2-3 58-12 123-21l119-15 170 5 170 6 125 21c155 26 251 50 410 102 127 41 347 131 364 149l10 9h69c137 0 454-59 605-112 280-98 628-345 868-615 43-48 84-90 91-91l14-4-7 39c-3 21-22 90-41 153l-34 115-64 130-64 130-65 86c-35 47-95 114-131 148l-67 62-127 84c-151 99-235 142-367 188-188 65-381 100-619 112l-130 6-135-10-135-11-105-105-106-106 4 113 4 113-11 39c-6 22-9 41-7 43s43-3 91-12l87-17 47 20c65 29 190 50 360 63l146 11 120-6 120-6 114-20 114-21 111-35c184-59 352-149 500-268 20-16 39-26 42-23 8 8-52 115-128 229l-61 91-95 98-94 99-97 68c-278 199-530 307-856 369l-80 15-195 4-195 4-100-19zm-111-706l19-50v-70l1-70-26-50-26-50-39-36-38-36-47-12c-58-14-171-14-220-1l-37 11-42 32-42 32-24 45-24 45 48 42c26 24 50 43 53 43s13-22 23-50l18-49 32-24c18-14 49-30 69-37l38-11 53 15 52 15 32 33 31 33 11 41c6 23 9 48 7 55-2 8-7 26-10 41-3 14-18 40-32 57l-26 31 34 15 33 15 30-3 29-2 20-50zm-1524 122c-236-103-540-321-803-576l-118-115-44-66c-53-80-99-192-120-290l-15-71v-277l14-74c31-158 90-278 194-389l63-67 64-42 64-42 10 6 10 6-23 68c-13 37-29 98-36 136l-13 68 6 80 5 79 26 54 27 54 36 32c21 17 60 42 88 55l50 22 145 27c519 96 852 109 1174 44l98-20 7 6 6 7-62 58-62 58-70 42c-87 52-236 111-361 143-82 22-136 32-339 63l-33 5 6 32c4 18 14 70 22 117l16 85 3 240 3 240 12 79c6 43 18 96 25 117 8 22 11 39 7 39s-41-15-82-33zm2240-798c-257-90-577-165-830-194l-135-15h-294l-5-8-5-9 127-23c294-53 616-145 909-261l158-62 205-103 205-103 137-88c405-260 718-566 979-956l99-149 77-158c43-87 81-159 85-159 11-1 17 28 33 164l15 130v304l-15 118c-40 306-136 569-296 809l-73 109-125 125c-185 185-340 297-544 395-135 65-287 117-424 144l-101 21-49-1-48-1-85-29zm-1350-361v-13l76-65c191-163 412-415 556-635l79-120 64-130 64-130 35-105c19-58 45-152 57-210l22-105 1-137 1-138h12c33 0 127 163 168 290 10 30 21 59 26 64l8 9 46-73c67-103 129-238 180-393l44-133 30-145c16-79 37-202 47-274l17-130-1-140v-140l-12-90c-44-351-161-668-326-888-41-54-53-77-38-77 4 0 45 26 92 57 256 170 474 408 634 690 65 116 144 290 169 371 7 23 16 42 20 42 8 0 42-136 59-240 6-36 14-134 17-217l6-153h8c11 0 67 111 115 227 119 285 188 577 203 852l7 136 37-75 37-75 27-108 28-107h23l23 93 22 92 1 125v125l-13 75c-7 41-28 120-46 176l-33 100-55 110c-68 136-169 288-277 416l-81 98-189 179-189 179-85 64c-349 258-837 474-1382 611-99 25-206 51-239 57s-68 14-77 16l-18 5v-13zm-483-225l-5-9 50-64c219-279 338-578 368-920l10-125-10-125c-21-255-73-458-175-677l-44-93 10-6 10-6 67 37c153 84 315 224 415 360l52 69 3-154 3-155-11-83c-31-233-114-440-251-621l-59-80-88-81-87-82-96-64c-121-81-249-141-414-193-251-81-469-127-709-151l-119-13-216 6-216 5-120 21c-66 11-157 31-202 44l-83 24v-27l73-53c109-80 159-110 306-181l135-65 165-55 166-54 140-31c77-16 199-38 270-47l130-18h470l116 17c326 48 614 152 835 302l96 65-23-37c-76-126-197-246-359-355l-105-71-116-57c-65-32-123-60-129-62l-13-4 4-10 4-10 100 12c630 81 1062 351 1271 799l44 94 30 103c40 138 59 264 67 433l6 140-12 134c-17 191-64 438-101 536l-11 30-37-45c-69-84-147-163-242-243l-95-80-6 179-7 179-16 120c-92 664-387 1130-873 1378l-108 55-95 30c-52 16-109 33-127 36l-31 7-5-8zm-290-160c4-38 8-149 8-248l-1-180-22-102c-41-188-107-347-199-485l-47-72-94-98c-189-196-385-313-637-378l-110-28-114-12-114-13-101 6c-188 12-367 59-520 137-89 45-86 45-86 26v-14l94-90 94-89 84-56c169-112 352-186 553-223l100-19h490l83 18c246 54 430 148 590 302l84 79 57 86 58 86 32 79c18 43 44 121 57 172l24 94 9 115 9 114-8 103c-11 128-33 235-72 345-38 109-58 149-121 240l-51 74-55 49c-30 27-61 49-69 49h-14l9-67zm773-1945c-149-139-338-253-577-347l-53-21 58 69 57 69 45 85 45 85-8 8-7 8-78-33c-298-127-573-203-892-248l-125-17h-540l-120 17c-387 56-721 154-996 292l-71 37-9-9-8-8 64-88c215-290 499-490 870-612l130-43 125-25c69-14 170-32 225-39l100-12h450l141 22c414 65 711 182 947 372l75 60 49 60c91 113 154 236 169 330l7 40h-9c-5-1-34-24-64-52zm1725-1672l-50-25-18-30-17-29v-54l22-30 21-30 41-19 41-19h750l35-18 35-17v-79l-25-13-25-13h-178c-312 0-511-27-674-89-145-56-267-151-329-256l-29-50-3-297-3-296 33-24c18-14 47-30 63-37l30-11 742 2 741 3 44 30 43 31 3 53 3 54-22 23-22 24-54 20-54 20H7000v363l42 40 42 40 60 28c34 16 88 36 121 45l60 16 295 8 295 7 74 22c94 28 135 49 193 100l47 42 27 55 27 55-6 59-5 60-25 43c-14 24-45 61-68 81l-42 38-62 29c-34 16-93 37-131 46l-69 16-425 4-425 4-50-25zM1263 3c20-2 54-2 75 0l37 4h-150l38-4z"/></g><g fill="#ed3036" transform="matrix(.1 0 0 -.1 0 900)"><path d="M4665 8550c-426-38-826-149-1170-325-347-178-450-240-632-382-285-221-518-477-750-823-112-167-179-286-253-455-148-334-235-673-276-1065l-17-165 6-210 6-210 16-124c22-170 60-360 101-505 36-126 104-315 134-376l18-35 118-67c262-147 464-234 464-200 0 5-22 46-50 92-124 206-242 493-305 740-13 52-38 172-55 265l-31 170-10 157-11 158 11 167c13 193 31 321 67 483 94 418 269 798 528 1145l90 120 175 175 176 176 135 100c181 135 306 212 485 299 312 151 562 227 915 277l95 13h550l120-18c258-38 515-111 755-212l125-53 150-5 150-6 90-16c180-32 384-92 543-157 125-52 107-21-78 126-210 168-415 298-645 411-344 168-653 259-1095 321l-105 14-220 5-220 4-100-9zm1073-727c7-3 16-2 19 1 4 3-2 6-13 5l-19-1 13-5zm-355-10c9-2 23-2 30 0l12 5h-60l18-5zm-135-20c7-3 16-2 19 1 4 3-2 6-13 5l-19-1 13-5zm747-112c-469-86-859-377-1197-890l-87-133-76-149c-41-82-75-156-75-164v-15h12c7 0 100-11 206-26 107-14 195-24 196-22 2 2 22 39 45 82 47 89 115 192 164 249l32 37 37-56 38-56-32-32c-48-48-156-221-145-232 2-3 58-12 123-21l119-15 170 5 170 6 125 21c155 26 251 50 410 102 127 41 347 131 364 149l10 9h69c137 0 454-59 605-112 280-98 628-345 868-615 43-48 84-90 91-91l14-4-7 39c-3 21-22 90-41 153l-34 115-64 130-64 130-65 86c-35 47-95 114-131 148l-67 62-127 84c-151 99-235 142-367 188-188 65-381 100-619 112l-130 6-135-10-135-11-105-105-106-106 4 113 4 113-11 39c-6 22-9 41-7 43s43-3 91-12l87-17 47 20c65 29 190 50 360 63l146 11 120-6 120-6 114-20 114-21 111-35c184-59 352-149 500-268 20-16 39-26 42-23 8 8-52 115-128 229l-61 91-95 98-94 99-97 68c-278 199-530 307-856 369l-80 15-195 4-195 4-100-19zm-111-706l19-50v-70l1-70-26-50-26-50-39-36-38-36-47-12c-58-14-171-14-220-1l-37 11-42 32-42 32-24 45-24 45 48 42c26 24 50 43 53 43s13-22 23-50l18-49 32-24c18-14 49-30 69-37l38-11 53 15 52 15 32 33 31 33 11 41c6 23 9 48 7 55-2 8-7 26-10 41-3 14-18 40-32 57l-26 31 34 15 33 15 30-3 29-2 20-50zm-899 303l-50-53 53 50c48 46 57 55 49 55-1 0-25-24-52-52zm-1116-485l-14-18 18 14c16 13 21 21 13 21-2 0-10-8-17-17zm512-369l1-19 5 13c3 7 2 16-1 19-3 4-6-2-5-13zm1707-271c7-3 16-2 19 1 4 3-2 6-13 5l-19-1 13-5zm-690-70c7-3 16-2 19 1 4 3-2 6-13 5l-19-1 13-5zm70 0c7-3 16-2 19 1 4 3-2 6-13 5l-19-1 13-5zm70 0c6-2 18-2 25 0l12 5h-50l13-5zm1912 3c0-3 9-10 20-16s20-8 20-6c0 3-9 10-20 16s-20 8-20 6zm-2200-148v-13l76-65c191-163 412-415 556-635l79-120 64-130 64-130 35-105c19-58 45-152 57-210l22-105 1-137 1-138h12c33 0 127 163 168 290 10 30 21 59 26 64l8 9 46-73c67-103 129-238 180-393l44-133 30-145c16-79 37-202 47-274l17-130-1-140v-140l-12-90c-44-351-161-668-326-888-41-54-53-77-38-77 4 0 45 26 92 57 256 170 474 408 634 690 65 116 144 290 169 371 7 23 16 42 20 42 8 0 42-136 59-240 6-36 14-134 17-217l6-153h8c11 0 67 111 115 227 119 285 188 577 203 852l7 136 37-75 37-75 27-108 28-107h23l23 93 22 92 1 125v125l-13 75c-7 41-28 120-46 176l-33 100-55 110c-68 136-169 288-277 416l-81 98-189 179-189 179-85 64c-349 258-837 474-1382 611-99 25-206 51-239 57s-68 14-77 16l-18 5v-13zm-470-262c0-2 8-10 18-17l17-14-14 18c-13 16-21 21-21 13zm240-36c8-5 20-10 25-10h10l-15 10c-8 5-19 10-25 10h-10l15-10zm-543-87c4-38 8-149 8-248l-1-180-22-102c-41-188-107-347-199-485l-47-72-94-98c-189-196-385-313-637-378l-110-28-114-12-114-13-101 6c-188 12-367 59-520 137-89 45-86 45-86 26v-14l94-90 94-89 84-56c169-112 352-186 553-223l100-19h490l83 18c246 54 430 148 590 302l84 79 57 86 58 86 32 79c18 43 44 121 57 172l24 94 9 115 9 114-8 103c-11 128-33 235-72 345-38 109-58 149-121 240l-51 74-55 49c-30 27-61 49-69 49h-14l9-67zm529-216c3-10 9-15 12-12s0 11-7 18l-12 12 7-18zm3335-633l1-19 5 13c3 7 2 16-1 19-3 4-6-2-5-13zm10-370l1-19 5 13c3 7 2 16-1 19-3 4-6-2-5-13zm-2360-60l1-19 5 13c3 7 2 16-1 19-3 4-6-2-5-13zm20-180l1-19 5 13c3 7 2 16-1 19-3 4-6-2-5-13zm-489-19v-30l5 18c2 9 2 23 0 30l-5 12v-30zm777-102l-14-18 18 14c16 13 21 21 13 21-2 0-10-8-17-17zm-278-19l1-19 5 13c3 7 2 16-1 19-3 4-6-2-5-13zm58-181l-14-18 18 14c9 7 17 15 17 17 0 8-8 3-21-13zm-588-119l1-19 5 13c3 7 2 16-1 19-3 4-6-2-5-13zm-241-46c-149-139-338-253-577-347l-53-21 58 69 57 69 45 85 45 85-8 8-7 8-78-33c-298-127-573-203-892-248l-125-17h-540l-120 17c-387 56-721 154-996 292l-71 37-9-9-8-8 64-88c215-290 499-490 870-612l130-43 125-25c69-14 170-32 225-39l100-12h450l141 22c414 65 711 182 947 372l75 60 49 60c91 113 154 236 169 330l7 40h-9c-5-1-34-24-64-52zm1271-174l1-19 5 13c3 7 2 16-1 19-3 4-6-2-5-13zm0-140l1-19 5 13c3 7 2 16-1 19-3 4-6-2-5-13zm-1387-296l-19-23 23 19c12 11 22 21 22 23 0 8-8 2-26-19zm-1936-505c7-3 16-2 19 1 4 3-2 6-13 5l-19-1 13-5zm600-10c7-3 16-2 19 1 4 3-2 6-13 5l-19-1 13-5zm-355-10c9-2 23-2 30 0l12 5h-60l18-5zm65 0c6-2 18-2 25 0l12 5h-50l13-5zm105 0c9-2 23-2 30 0l12 5h-60l18-5zm2112-84c-4-6-5-12-2-15 2-3 7 2 10 11 7 17 1 20-8 4zm-1337-346c6-2 18-2 25 0l12 5h-50l13-5zm2587-107l-50-25-18-30-17-29v-54l22-30 21-30 41-19 41-19h750l35-18 35-17v-79l-25-13-25-13h-178c-312 0-511-27-674-89-145-56-267-151-329-256l-29-50-3-297-3-296 33-24c18-14 47-30 63-37l30-11 742 2 741 3 44 30 43 31 3 53 3 54-22 23-22 24-54 20-54 20H7000v363l42 40 42 40 60 28c34 16 88 36 121 45l60 16 295 8 295 7 74 22c94 28 135 49 193 100l47 42 27 55 27 55-6 59-5 60-25 43c-14 24-45 61-68 81l-42 38-62 29c-34 16-93 37-131 46l-69 16-425 4-425 4-50-25zM1263 3c20-2 54-2 75 0l37 4h-150l38-4z"/></g><g fill="#3e4095" transform="matrix(.1 0 0 -.1 0 900)"><path d="M4665 8550c-426-38-826-149-1170-325-347-178-450-240-632-382-285-221-518-477-750-823-112-167-179-286-253-455-148-334-235-673-276-1065l-17-165 6-210 6-210 16-124c22-170 60-360 101-505 36-126 104-315 134-376l18-35 118-67c262-147 464-234 464-200 0 5-22 46-50 92-124 206-242 493-305 740-13 52-38 172-55 265l-31 170-10 157-11 158 11 167c13 193 31 321 67 483 94 418 269 798 528 1145l90 120 175 175 176 176 135 100c181 135 306 212 485 299 312 151 562 227 915 277l95 13h550l120-18c258-38 515-111 755-212l125-53 150-5 150-6 90-16c180-32 384-92 543-157 125-52 107-21-78 126-210 168-415 298-645 411-344 168-653 259-1095 321l-105 14-220 5-220 4-100-9zm1330-869c-469-86-859-377-1197-890l-87-133-76-149c-41-82-75-156-75-164v-15h12c7 0 100-11 206-26 107-14 195-24 196-22 2 2 22 39 45 82 47 89 115 192 164 249l32 37 37-56 38-56-32-32c-48-48-156-221-145-232 2-3 58-12 123-21l119-15 170 5 170 6 125 21c155 26 251 50 410 102 127 41 347 131 364 149l10 9h69c137 0 454-59 605-112 280-98 628-345 868-615 43-48 84-90 91-91l14-4-7 39c-3 21-22 90-41 153l-34 115-64 130-64 130-65 86c-35 47-95 114-131 148l-67 62-127 84c-151 99-235 142-367 188-188 65-381 100-619 112l-130 6-135-10-135-11-105-105-106-106 4 113 4 113-11 39c-6 22-9 41-7 43s43-3 91-12l87-17 47 20c65 29 190 50 360 63l146 11 120-6 120-6 114-20 114-21 111-35c184-59 352-149 500-268 20-16 39-26 42-23 8 8-52 115-128 229l-61 91-95 98-94 99-97 68c-278 199-530 307-856 369l-80 15-195 4-195 4-100-19zm-111-706l19-50v-70l1-70-26-50-26-50-39-36-38-36-47-12c-58-14-171-14-220-1l-37 11-42 32-42 32-24 45-24 45 48 42c26 24 50 43 53 43s13-22 23-50l18-49 32-24c18-14 49-30 69-37l38-11 53 15 52 15 32 33 31 33 11 41c6 23 9 48 7 55-2 8-7 26-10 41-3 14-18 40-32 57l-26 31 34 15 33 15 30-3 29-2 20-50zm-634-1037v-13l76-65c191-163 412-415 556-635l79-120 64-130 64-130 35-105c19-58 45-152 57-210l22-105 1-137 1-138h12c33 0 127 163 168 290 10 30 21 59 26 64l8 9 46-73c67-103 129-238 180-393l44-133 30-145c16-79 37-202 47-274l17-130-1-140v-140l-12-90c-44-351-161-668-326-888-41-54-53-77-38-77 4 0 45 26 92 57 256 170 474 408 634 690 65 116 144 290 169 371 7 23 16 42 20 42 8 0 42-136 59-240 6-36 14-134 17-217l6-153h8c11 0 67 111 115 227 119 285 188 577 203 852l7 136 37-75 37-75 27-108 28-107h23l23 93 22 92 1 125v125l-13 75c-7 41-28 120-46 176l-33 100-55 110c-68 136-169 288-277 416l-81 98-189 179-189 179-85 64c-349 258-837 474-1382 611-99 25-206 51-239 57s-68 14-77 16l-18 5v-13zm-773-385c4-38 8-149 8-248l-1-180-22-102c-41-188-107-347-199-485l-47-72-94-98c-189-196-385-313-637-378l-110-28-114-12-114-13-101 6c-188 12-367 59-520 137-89 45-86 45-86 26v-14l94-90 94-89 84-56c169-112 352-186 553-223l100-19h490l83 18c246 54 430 148 590 302l84 79 57 86 58 86 32 79c18 43 44 121 57 172l24 94 9 115 9 114-8 103c-11 128-33 235-72 345-38 109-58 149-121 240l-51 74-55 49c-30 27-61 49-69 49h-14l9-67zm773-1945c-149-139-338-253-577-347l-53-21 58 69 57 69 45 85 45 85-8 8-7 8-78-33c-298-127-573-203-892-248l-125-17h-540l-120 17c-387 56-721 154-996 292l-71 37-9-9-8-8 64-88c215-290 499-490 870-612l130-43 125-25c69-14 170-32 225-39l100-12h450l141 22c414 65 711 182 947 372l75 60 49 60c91 113 154 236 169 330l7 40h-9c-5-1-34-24-64-52zm1725-1672l-50-25-18-30-17-29v-54l22-30 21-30 41-19 41-19h750l35-18 35-17v-79l-25-13-25-13h-178c-312 0-511-27-674-89-145-56-267-151-329-256l-29-50-3-297-3-296 33-24c18-14 47-30 63-37l30-11 742 2 741 3 44 30 43 31 3 53 3 54-22 23-22 24-54 20-54 20H7000v363l42 40 42 40 60 28c34 16 88 36 121 45l60 16 295 8 295 7 74 22c94 28 135 49 193 100l47 42 27 55 27 55-6 59-5 60-25 43c-14 24-45 61-68 81l-42 38-62 29c-34 16-93 37-131 46l-69 16-425 4-425 4-50-25zM1263 3c20-2 54-2 75 0l37 4h-150l38-4z"/></g><g fill="#3d3e95" transform="matrix(.1 0 0 -.1 0 900)"><path d="M4768 8553c7-3 16-2 19 1 4 3-2 6-13 5l-19-1 13-5zm180 0c7-3 16-2 19 1 4 3-2 6-13 5l-19-1 13-5zm40 0c6-2 18-2 25 0l12 5h-50l13-5zm1362-317c0-2 7-7 16-10l15-6-6 10c-6 10-25 14-25 6zm-1497-83c9-2 25-2 35 0l17 5h-70l18-5zm135 0c7-3 16-2 19 1 4 3-2 6-13 5l-19-1 13-5zm280-20c7-3 16-2 19 1 4 3-2 6-13 5l-19-1 13-5zm-2188-133l-15-10h12c6 0 15 5 18 10 8 12 4 12-15 0zm3138-137c12-2 30-2 40 0l17 5-40-1h-40l23-4zm100 0c6-2 18-2 25 0l12 5h-50l13-5zm270-30c7-3 16-2 19 1 4 3-2 6-13 5l-19-1 13-5zm-560-150c7-3 16-2 19 1 4 3-2 6-13 5l-19-1 13-5zm-3394-35l-19-23 23 19c12 11 22 21 22 23 0 8-8 2-26-19zm2786-199l-25-20 22 10c12 6 25 16 28 21 9 15 3 12-25-11zm-2421-6l-14-18 18 14c9 7 17 15 17 17 0 8-8 3-21-13zm2320-70l-14-18 18 14c9 7 17 15 17 17 0 8-8 3-21-13zm-2970-30l-14-18 18 14c9 7 17 15 17 17 0 8-8 3-21-13zm4159-260c6-2 18-2 25 0l12 5h-50l13-5zm-1569-90l-14-18 18 14c9 7 17 15 17 17 0 8-8 3-21-13zm1394-50c9-2 25-2 35 0l17 5h-70l18-5zm-109-45l-19-23 23 19c21 18 27 26 19 26-2 0-12-10-23-22zm1476-42c0-2 7-7 16-10l15-6-6 10c-6 10-25 14-25 6zm70-40c0-2 8-10 18-17l17-14-14 18c-13 16-21 21-21 13zm-263-77c7-7 15-10 18-7s-2 9-12 12l-18 7 12-12zm-1461-11l5-8 10 5c13 9 11 12-6 12h-14l5-9zm1704-142c0-2 8-10 18-17l17-14-14 18c-13 16-21 21-21 13zm-2475-26c10-11 20-20 23-20s-3 9-13 20-20 20-23 20 3-9 13-20zm1423-27c7-3 16-2 19 1 4 3-2 6-13 5l-19-1 13-5zm-1540-270c7-3 16-2 19 1 4 3-2 6-13 5l-19-1 13-5zm525-10c9-2 23-2 30 0l12 5h-60l18-5zm-315-10c7-3 16-2 19 1 4 3-2 6-13 5l-19-1 13-5zm200 0c7-3 16-2 19 1 4 3-2 6-13 5l-19-1 13-5zm2152-57c0-2 8-10 18-17l17-14-14 18c-13 16-21 21-21 13zm-6069-252l1-19 5 13c3 7 2 16-1 19-3 4-6-2-5-13zm4027-91c7-3 16-2 19 1 4 3-2 6-13 5l-19-1 13-5zm-3647-39l1-19 5 13c3 7 2 16-1 19-3 4-6-2-5-13zm3429-68c0-2 8-10 18-17l17-14-14 18c-13 16-21 21-21 13zm-3459-92l1-19 5 13c3 7 2 16-1 19-3 4-6-2-5-13zm-20-160l1-19 5 13c3 7 2 16-1 19-3 4-6-2-5-13zm3709 2c0-2 8-10 18-17l17-14-14 18c-13 16-21 21-21 13zm-1198-101v-30l5 18c2 9 2 23 0 30l-5 12v-30zm-2920-30v-30l5 18c2 9 2 23 0 30l-5 12v-30zm2919-31l1-19 5 13c3 7 2 16-1 19-3 4-6-2-5-13zm2409-18c0-2 8-10 18-17l17-14-14 18c-13 16-21 21-21 13zm-2429-232l1-19 5 13c3 7 2 16-1 19-3 4-6-2-5-13zm2699 2c0-2 8-10 18-17l17-14-14 18c-13 16-21 21-21 13zm-2329-162l1-19 5 13c3 7 2 16-1 19-3 4-6-2-5-13zm-2820-260l1-19 5 13c3 7 2 16-1 19-3 4-6-2-5-13zm4170-180l1-19 5 13c3 7 2 16-1 19-3 4-6-2-5-13zm-1992-21l-14-18 18 14c16 13 21 21 13 21-2 0-10-8-17-17zm2003-53v-25l5 13c2 6 2 18 0 25l-5 12v-25zm-2158-112l-19-23 23 19c12 11 22 21 22 23 0 8-8 2-26-19zm-105-85l-14-18 18 14c9 7 17 15 17 17 0 8-8 3-21-13zm761-43c-6-11-8-20-6-20 3 0 10 9 16 20s8 20 6 20c-3 0-10-9-16-20zm-875-30l-6-10 15 6c18 7 21 14 7 14-6 0-13-4-16-10zm-1350-70c10-11 20-20 23-20s-3 9-13 20-20 20-23 20 3-9 13-20zm1200-10l-6-10 15 6c18 7 21 14 7 14-6 0-13-4-16-10zm914-47l-14-18 18 14c16 13 21 21 13 21-2 0-10-8-17-17zm-1929-107c0-2 8-10 18-17l17-14-14 18c-13 16-21 21-21 13zm-710-80c0-2 7-7 16-10l15-6-6 10c-6 10-25 14-25 6zm67-37c7-7 15-10 18-7s-2 9-12 12l-18 7 12-12zm353-78c0-6 4-13 10-16l10-6-6 15c-7 18-14 21-14 7zm958-78c7-3 16-2 19 1 4 3-2 6-13 5l-19-1 13-5zm4593-9l1-19 5 13c3 7 2 16-1 19-3 4-6-2-5-13zm-5771-248c0-2 8-10 18-17l17-14-14 18c-13 16-21 21-21 13zm1708-83c7-3 16-2 19 1 4 3-2 6-13 5l-19-1 13-5zm-190-20c6-2 18-2 25 0l12 5h-50l13-5zm-190-10c7-3 16-2 19 1 4 3-2 6-13 5l-19-1 13-5zm-828-257c0-2 7-7 16-10l15-6-6 10c-6 10-25 14-25 6zm4112-66v-25l5 13c2 6 2 18 0 25l-5 12v-25zm-2464-87c7-3 16-2 19 1 4 3-2 6-13 5l-19-1 13-5zm-270-50c7-3 16-2 19 1 4 3-2 6-13 5l-19-1 13-5zm-455-20c9-2 23-2 30 0l12 5h-60l18-5zm185 0c12-2 32-2 45 0l22 4h-90l23-4zm3644-128v-30l5 18c2 9 2 23 0 30l-5 12v-30zm-483-172l-14-18 18 14c16 13 21 21 13 21-2 0-10-8-17-17zm-80-90l-24-28 28 24c15 14 27 26 27 28 0 8-8 1-31-24zm1336-563c10-11 20-20 23-20s-3 9-13 20-20 20-23 20 3-9 13-20zm-1265-54c0-2 8-10 18-17l17-14-14 18c-13 16-21 21-21 13zm928-121c2-14 6-25 8-25s4 11 4 25v25h-17l5-25zm-405-92c9-2 23-2 30 0l12 5h-60l18-5zm55 0c7-3 16-2 19 1 4 3-2 6-13 5l-19-1 13-5zm40 0c7-3 16-2 19 1 4 3-2 6-13 5l-19-1 13-5zm-938-364c-7-11-10-23-7-25 2-2 9 7 15 21 14 30 7 33-8 4zm404-264V745l3 93c2 51 2 132 0 180-1 48-3 6-3-93z"/>
</g>
</g>
</svg>